<?xml version="1.0" encoding="UTF-8"?>
<!DOCTYPE svg PUBLIC "-//W3C//DTD SVG 1.1//EN" "http://www.w3.org/Graphics/SVG/1.1/DTD/svg11.dtd">
<svg xmlns="http://www.w3.org/2000/svg">
<symbol id="file" viewBox="0 0 12 13">
    <path fill-rule="evenodd" clip-rule="evenodd" d="M1.529 12.065a2.975 2.975 0 0 1 0-4.212l6.616-6.518a2.088 2.088 0 0 1 2.958 0 2.07 2.07 0 0 1 0 2.947l-6.617 6.533a1.202 1.202 0 0 1-1.687 0 1.192 1.192 0 0 1 0-1.682l3.33-3.244c.12-.12.314-.12.418 0 .12.119.12.312 0 .416L3.232 9.55a.6.6 0 0 0 0 .833.597.597 0 0 0 .851 0L10.7 3.865a1.478 1.478 0 0 0 0-2.099 1.491 1.491 0 0 0-2.106 0L1.962 8.285a2.383 2.383 0 0 0 0 3.363c.941.923 2.45.923 3.376 0l5.72-5.625c.12-.12.314-.12.418 0 .12.119.12.312 0 .416l-5.72 5.64a3 3 0 0 1-4.227-.014z" fill="#696A6A"/>
</symbol>
</svg>