<svg width="48" height="24" viewBox="0 0 48 24" xmlns="http://www.w3.org/2000/svg" xmlns:xlink="http://www.w3.org/1999/xlink"><title>Clip 2</title><defs><path d="M104.625 21c-3.091 0-4.863.068-5.315.205-1.272.147-2.692.677-4.258 1.593-.873.535-1.798 1.356-2.775 2.459-1.745 2.167-2.618 4.621-2.618 7.365 0 1.609.31 3.129.93 4.558 1.231 2.775 3.244 4.784 6.04 6.024 1.294.663 3.281.994 5.962.994h9.683l.725-.142v-4.747h-10.882c-1.135 0-1.992-.094-2.57-.283-1.598-.547-2.765-1.347-3.501-2.398-.904-1.367-1.356-2.686-1.356-3.958 0-1.293.394-2.565 1.182-3.817.474-.715 1.005-1.261 1.593-1.64 1.072-.883 2.623-1.325 4.652-1.325h10.882V21h-8.374zM65 21.473v3.911h14.257c.599 0 .899.021.899.063.62 0 1.277.273 1.971.82.799.778 1.198 1.651 1.198 2.618-.02.231-.063.521-.126.867-.62 1.725-1.803 2.587-3.548 2.587H65v3.911h8.722c1.902 0 3.447.42 4.635 1.261 2.072 1.504 3.107 3.538 3.107 6.104v.11h4.117c0-3.133-1.02-5.788-3.06-7.964.957-.316 1.882-.899 2.775-1.751 1.399-1.545 2.098-3.117 2.098-4.715v-.646c0-1.042-.279-2.119-.836-3.234-.231-.535-.668-1.098-1.308-1.688-1.41-1.502-3.37-2.254-5.883-2.254H65z" id="a"/></defs><use fill="#FFF" xlink:href="#a" transform="translate(-65 -21)" fill-rule="evenodd"/></svg>